<mxfile host="Electron" agent="Mozilla/5.0 (Windows NT 10.0; Win64; x64) AppleWebKit/537.36 (KHTML, like Gecko) draw.io/24.7.17 Chrome/128.0.6613.36 Electron/32.0.1 Safari/537.36" version="24.7.17">
  <diagram name="第 1 页" id="lp1SsSy7WhJ0Atb1i-o_">
    <mxGraphModel dx="1638" dy="266" grid="0" gridSize="10" guides="1" tooltips="1" connect="1" arrows="1" fold="1" page="0" pageScale="1" pageWidth="827" pageHeight="1169" math="0" shadow="0">
      <root>
        <mxCell id="0" />
        <mxCell id="1" parent="0" />
        <mxCell id="PqfID5NwvcGCKPn-m6vd-29" style="edgeStyle=orthogonalEdgeStyle;rounded=0;orthogonalLoop=1;jettySize=auto;html=1;entryX=0;entryY=0.5;entryDx=0;entryDy=0;" parent="1" edge="1">
          <mxGeometry relative="1" as="geometry">
            <mxPoint x="-545" y="573" as="sourcePoint" />
            <mxPoint x="-435" y="573" as="targetPoint" />
          </mxGeometry>
        </mxCell>
        <mxCell id="PqfID5NwvcGCKPn-m6vd-30" value="MemosAPI" style="edgeLabel;html=1;align=center;verticalAlign=middle;resizable=0;points=[];" parent="PqfID5NwvcGCKPn-m6vd-29" vertex="1" connectable="0">
          <mxGeometry x="0.0083" y="1" relative="1" as="geometry">
            <mxPoint as="offset" />
          </mxGeometry>
        </mxCell>
        <mxCell id="PqfID5NwvcGCKPn-m6vd-7" value="" style="swimlane;startSize=0;" parent="1" vertex="1">
          <mxGeometry x="-805" y="520" width="260" height="135" as="geometry" />
        </mxCell>
        <mxCell id="PqfID5NwvcGCKPn-m6vd-8" value="&lt;span style=&quot;font-size: 18px;&quot;&gt;客户端&lt;/span&gt;" style="rounded=1;whiteSpace=wrap;html=1;" parent="PqfID5NwvcGCKPn-m6vd-7" vertex="1">
          <mxGeometry x="10" y="10" width="120" height="30" as="geometry" />
        </mxCell>
        <mxCell id="PqfID5NwvcGCKPn-m6vd-9" value="展示书签、笔记" style="rounded=0;whiteSpace=wrap;html=1;align=left;" parent="PqfID5NwvcGCKPn-m6vd-7" vertex="1">
          <mxGeometry x="10" y="50" width="210" height="20" as="geometry" />
        </mxCell>
        <mxCell id="PqfID5NwvcGCKPn-m6vd-11" value="编辑和删除标签" style="rounded=0;whiteSpace=wrap;html=1;align=left;" parent="PqfID5NwvcGCKPn-m6vd-7" vertex="1">
          <mxGeometry x="10" y="105" width="210" height="20" as="geometry" />
        </mxCell>
        <mxCell id="PqfID5NwvcGCKPn-m6vd-10" value="编辑、删除和添加书签和笔记" style="rounded=0;whiteSpace=wrap;html=1;align=left;" parent="PqfID5NwvcGCKPn-m6vd-7" vertex="1">
          <mxGeometry x="10" y="77.5" width="210" height="20" as="geometry" />
        </mxCell>
        <mxCell id="PqfID5NwvcGCKPn-m6vd-25" style="edgeStyle=orthogonalEdgeStyle;rounded=0;orthogonalLoop=1;jettySize=auto;html=1;entryX=0.5;entryY=0;entryDx=0;entryDy=0;exitX=1;exitY=0.5;exitDx=0;exitDy=0;" parent="1" source="PqfID5NwvcGCKPn-m6vd-13" target="PqfID5NwvcGCKPn-m6vd-18" edge="1">
          <mxGeometry relative="1" as="geometry" />
        </mxCell>
        <mxCell id="PqfID5NwvcGCKPn-m6vd-36" value="MemosAPI" style="edgeLabel;html=1;align=center;verticalAlign=middle;resizable=0;points=[];" parent="PqfID5NwvcGCKPn-m6vd-25" vertex="1" connectable="0">
          <mxGeometry x="-0.4512" relative="1" as="geometry">
            <mxPoint as="offset" />
          </mxGeometry>
        </mxCell>
        <mxCell id="PqfID5NwvcGCKPn-m6vd-13" value="" style="swimlane;startSize=0;" parent="1" vertex="1">
          <mxGeometry x="-805" y="343" width="260" height="110" as="geometry" />
        </mxCell>
        <mxCell id="PqfID5NwvcGCKPn-m6vd-14" value="&lt;span style=&quot;font-size: 18px;&quot;&gt;浏览器插件&lt;/span&gt;" style="rounded=1;whiteSpace=wrap;html=1;" parent="PqfID5NwvcGCKPn-m6vd-13" vertex="1">
          <mxGeometry x="10" y="10" width="120" height="30" as="geometry" />
        </mxCell>
        <mxCell id="PqfID5NwvcGCKPn-m6vd-15" value="获取网页元信息" style="rounded=0;whiteSpace=wrap;html=1;align=left;" parent="PqfID5NwvcGCKPn-m6vd-13" vertex="1">
          <mxGeometry x="10" y="50" width="210" height="20" as="geometry" />
        </mxCell>
        <mxCell id="PqfID5NwvcGCKPn-m6vd-17" value="添加书签" style="rounded=0;whiteSpace=wrap;html=1;align=left;" parent="PqfID5NwvcGCKPn-m6vd-13" vertex="1">
          <mxGeometry x="10" y="77.5" width="210" height="20" as="geometry" />
        </mxCell>
        <mxCell id="PqfID5NwvcGCKPn-m6vd-26" style="edgeStyle=orthogonalEdgeStyle;rounded=0;orthogonalLoop=1;jettySize=auto;html=1;" parent="1" source="PqfID5NwvcGCKPn-m6vd-18" target="PqfID5NwvcGCKPn-m6vd-7" edge="1">
          <mxGeometry relative="1" as="geometry">
            <Array as="points">
              <mxPoint x="-485" y="603" />
              <mxPoint x="-485" y="603" />
            </Array>
          </mxGeometry>
        </mxCell>
        <mxCell id="PqfID5NwvcGCKPn-m6vd-33" value="MemosAPI" style="edgeLabel;html=1;align=center;verticalAlign=middle;resizable=0;points=[];" parent="PqfID5NwvcGCKPn-m6vd-26" vertex="1" connectable="0">
          <mxGeometry x="-0.0187" relative="1" as="geometry">
            <mxPoint as="offset" />
          </mxGeometry>
        </mxCell>
        <mxCell id="PqfID5NwvcGCKPn-m6vd-18" value="" style="swimlane;startSize=0;" parent="1" vertex="1">
          <mxGeometry x="-435" y="520" width="260" height="135" as="geometry" />
        </mxCell>
        <mxCell id="PqfID5NwvcGCKPn-m6vd-19" value="&lt;span style=&quot;font-size: 18px;&quot;&gt;服务器&lt;/span&gt;" style="rounded=1;whiteSpace=wrap;html=1;" parent="PqfID5NwvcGCKPn-m6vd-18" vertex="1">
          <mxGeometry x="10" y="10" width="120" height="30" as="geometry" />
        </mxCell>
        <mxCell id="PqfID5NwvcGCKPn-m6vd-20" value="数据库" style="rounded=0;whiteSpace=wrap;html=1;align=left;" parent="PqfID5NwvcGCKPn-m6vd-18" vertex="1">
          <mxGeometry x="10" y="50" width="210" height="20" as="geometry" />
        </mxCell>
        <mxCell id="PqfID5NwvcGCKPn-m6vd-21" value="权限校验" style="rounded=0;whiteSpace=wrap;html=1;align=left;" parent="PqfID5NwvcGCKPn-m6vd-18" vertex="1">
          <mxGeometry x="10" y="105" width="210" height="20" as="geometry" />
        </mxCell>
        <mxCell id="PqfID5NwvcGCKPn-m6vd-22" value="自动生成书签" style="rounded=0;whiteSpace=wrap;html=1;align=left;" parent="PqfID5NwvcGCKPn-m6vd-18" vertex="1">
          <mxGeometry x="10" y="77.5" width="210" height="20" as="geometry" />
        </mxCell>
        <mxCell id="PqfID5NwvcGCKPn-m6vd-110" style="edgeStyle=orthogonalEdgeStyle;rounded=0;orthogonalLoop=1;jettySize=auto;html=1;entryX=0.996;entryY=0.198;entryDx=0;entryDy=0;entryPerimeter=0;" parent="1" source="PqfID5NwvcGCKPn-m6vd-50" target="PqfID5NwvcGCKPn-m6vd-71" edge="1">
          <mxGeometry relative="1" as="geometry">
            <mxPoint x="1364.8946982935859" y="531.5789409436679" as="targetPoint" />
            <Array as="points">
              <mxPoint x="1404" y="532" />
            </Array>
          </mxGeometry>
        </mxCell>
        <mxCell id="PqfID5NwvcGCKPn-m6vd-112" style="edgeStyle=orthogonalEdgeStyle;rounded=0;orthogonalLoop=1;jettySize=auto;html=1;" parent="1" source="PqfID5NwvcGCKPn-m6vd-50" target="PqfID5NwvcGCKPn-m6vd-71" edge="1">
          <mxGeometry relative="1" as="geometry">
            <Array as="points">
              <mxPoint x="1438" y="742" />
              <mxPoint x="1438" y="742" />
            </Array>
          </mxGeometry>
        </mxCell>
        <mxCell id="PqfID5NwvcGCKPn-m6vd-50" value="" style="swimlane;startSize=0;" parent="1" vertex="1">
          <mxGeometry x="1450" y="394" width="351" height="490" as="geometry" />
        </mxCell>
        <mxCell id="PqfID5NwvcGCKPn-m6vd-51" value="&lt;span style=&quot;font-size: 18px;&quot;&gt;DataLayer&lt;/span&gt;" style="rounded=1;whiteSpace=wrap;html=1;" parent="PqfID5NwvcGCKPn-m6vd-50" vertex="1">
          <mxGeometry x="10" y="10" width="120" height="30" as="geometry" />
        </mxCell>
        <mxCell id="PqfID5NwvcGCKPn-m6vd-53" value="" style="swimlane;startSize=0;" parent="PqfID5NwvcGCKPn-m6vd-50" vertex="1">
          <mxGeometry x="45.5" y="73" width="260" height="156" as="geometry" />
        </mxCell>
        <mxCell id="PqfID5NwvcGCKPn-m6vd-54" value="&lt;span style=&quot;font-size: 18px;&quot;&gt;APIService&lt;/span&gt;" style="rounded=1;whiteSpace=wrap;html=1;" parent="PqfID5NwvcGCKPn-m6vd-53" vertex="1">
          <mxGeometry x="10" y="10" width="120" height="30" as="geometry" />
        </mxCell>
        <mxCell id="PqfID5NwvcGCKPn-m6vd-55" value="与服务器通信的API" style="rounded=0;whiteSpace=wrap;html=1;" parent="PqfID5NwvcGCKPn-m6vd-53" vertex="1">
          <mxGeometry x="10" y="50" width="180" height="20" as="geometry" />
        </mxCell>
        <mxCell id="PqfID5NwvcGCKPn-m6vd-56" value="" style="swimlane;startSize=0;" parent="PqfID5NwvcGCKPn-m6vd-50" vertex="1">
          <mxGeometry x="45.5" y="256" width="260" height="159" as="geometry" />
        </mxCell>
        <mxCell id="PqfID5NwvcGCKPn-m6vd-57" value="&lt;span style=&quot;font-size: 18px;&quot;&gt;MockAPIService&lt;/span&gt;" style="rounded=1;whiteSpace=wrap;html=1;" parent="PqfID5NwvcGCKPn-m6vd-56" vertex="1">
          <mxGeometry x="10" y="10" width="136" height="30" as="geometry" />
        </mxCell>
        <mxCell id="PqfID5NwvcGCKPn-m6vd-58" value="数据模拟服务" style="rounded=0;whiteSpace=wrap;html=1;" parent="PqfID5NwvcGCKPn-m6vd-56" vertex="1">
          <mxGeometry x="10" y="50" width="180" height="20" as="geometry" />
        </mxCell>
        <mxCell id="PqfID5NwvcGCKPn-m6vd-59" value="" style="swimlane;startSize=0;" parent="1" vertex="1">
          <mxGeometry x="636" y="394" width="295" height="493" as="geometry" />
        </mxCell>
        <mxCell id="PqfID5NwvcGCKPn-m6vd-60" value="&lt;span style=&quot;font-size: 18px;&quot;&gt;UILayer&lt;/span&gt;" style="rounded=1;whiteSpace=wrap;html=1;" parent="PqfID5NwvcGCKPn-m6vd-59" vertex="1">
          <mxGeometry x="10" y="10" width="120" height="30" as="geometry" />
        </mxCell>
        <mxCell id="PqfID5NwvcGCKPn-m6vd-62" value="" style="swimlane;startSize=0;" parent="PqfID5NwvcGCKPn-m6vd-59" vertex="1">
          <mxGeometry x="15" y="71" width="260" height="100" as="geometry" />
        </mxCell>
        <mxCell id="PqfID5NwvcGCKPn-m6vd-63" value="&lt;span style=&quot;font-size: 18px;&quot;&gt;主页&lt;/span&gt;" style="rounded=1;whiteSpace=wrap;html=1;" parent="PqfID5NwvcGCKPn-m6vd-62" vertex="1">
          <mxGeometry x="10" y="10" width="120" height="30" as="geometry" />
        </mxCell>
        <mxCell id="PqfID5NwvcGCKPn-m6vd-64" value="描述" style="rounded=0;whiteSpace=wrap;html=1;" parent="PqfID5NwvcGCKPn-m6vd-62" vertex="1">
          <mxGeometry x="10" y="50" width="180" height="20" as="geometry" />
        </mxCell>
        <mxCell id="PqfID5NwvcGCKPn-m6vd-65" value="" style="swimlane;startSize=0;" parent="PqfID5NwvcGCKPn-m6vd-59" vertex="1">
          <mxGeometry x="15" y="212" width="260" height="100" as="geometry" />
        </mxCell>
        <mxCell id="PqfID5NwvcGCKPn-m6vd-66" value="&lt;span style=&quot;font-size: 18px;&quot;&gt;导航页&lt;/span&gt;" style="rounded=1;whiteSpace=wrap;html=1;" parent="PqfID5NwvcGCKPn-m6vd-65" vertex="1">
          <mxGeometry x="10" y="10" width="120" height="30" as="geometry" />
        </mxCell>
        <mxCell id="PqfID5NwvcGCKPn-m6vd-67" value="描述" style="rounded=0;whiteSpace=wrap;html=1;" parent="PqfID5NwvcGCKPn-m6vd-65" vertex="1">
          <mxGeometry x="10" y="50" width="180" height="20" as="geometry" />
        </mxCell>
        <mxCell id="PqfID5NwvcGCKPn-m6vd-68" value="" style="swimlane;startSize=0;" parent="PqfID5NwvcGCKPn-m6vd-59" vertex="1">
          <mxGeometry x="17.5" y="354" width="260" height="100" as="geometry" />
        </mxCell>
        <mxCell id="PqfID5NwvcGCKPn-m6vd-69" value="&lt;span style=&quot;font-size: 18px;&quot;&gt;标签页&lt;/span&gt;" style="rounded=1;whiteSpace=wrap;html=1;" parent="PqfID5NwvcGCKPn-m6vd-68" vertex="1">
          <mxGeometry x="10" y="10" width="120" height="30" as="geometry" />
        </mxCell>
        <mxCell id="PqfID5NwvcGCKPn-m6vd-70" value="描述" style="rounded=0;whiteSpace=wrap;html=1;" parent="PqfID5NwvcGCKPn-m6vd-68" vertex="1">
          <mxGeometry x="10" y="50" width="180" height="20" as="geometry" />
        </mxCell>
        <mxCell id="PqfID5NwvcGCKPn-m6vd-105" style="edgeStyle=orthogonalEdgeStyle;rounded=0;orthogonalLoop=1;jettySize=auto;html=1;entryX=1;entryY=0.5;entryDx=0;entryDy=0;" parent="1" source="PqfID5NwvcGCKPn-m6vd-71" target="PqfID5NwvcGCKPn-m6vd-59" edge="1">
          <mxGeometry relative="1" as="geometry">
            <Array as="points">
              <mxPoint x="1007" y="641" />
              <mxPoint x="1007" y="641" />
            </Array>
          </mxGeometry>
        </mxCell>
        <mxCell id="PqfID5NwvcGCKPn-m6vd-71" value="" style="swimlane;startSize=0;" parent="1" vertex="1">
          <mxGeometry x="1024" y="394" width="334" height="696" as="geometry" />
        </mxCell>
        <mxCell id="PqfID5NwvcGCKPn-m6vd-72" value="&lt;span style=&quot;font-size: 18px;&quot;&gt;IAPIService&lt;/span&gt;" style="rounded=1;whiteSpace=wrap;html=1;" parent="PqfID5NwvcGCKPn-m6vd-71" vertex="1">
          <mxGeometry x="10" y="10" width="120" height="30" as="geometry" />
        </mxCell>
        <mxCell id="PqfID5NwvcGCKPn-m6vd-78" value="Auth APIs" style="swimlane;fontStyle=1;align=center;verticalAlign=top;childLayout=stackLayout;horizontal=1;startSize=26;horizontalStack=0;resizeParent=1;resizeParentMax=0;resizeLast=0;collapsible=1;marginBottom=0;fillColor=#dae8fc;strokeColor=#6c8ebf;" parent="PqfID5NwvcGCKPn-m6vd-71" vertex="1">
          <mxGeometry x="39" y="64" width="200" height="78" as="geometry" />
        </mxCell>
        <mxCell id="PqfID5NwvcGCKPn-m6vd-79" value="login" style="text;strokeColor=none;fillColor=none;align=left;verticalAlign=top;spacingLeft=4;spacingRight=4;overflow=hidden;points=[[0,0.5],[1,0.5]];portConstraint=eastwest;rotatable=0;" parent="PqfID5NwvcGCKPn-m6vd-78" vertex="1">
          <mxGeometry y="26" width="200" height="26" as="geometry" />
        </mxCell>
        <mxCell id="PqfID5NwvcGCKPn-m6vd-80" value="register" style="text;strokeColor=none;fillColor=none;align=left;verticalAlign=top;spacingLeft=4;spacingRight=4;overflow=hidden;points=[[0,0.5],[1,0.5]];portConstraint=eastwest;rotatable=0;" parent="PqfID5NwvcGCKPn-m6vd-78" vertex="1">
          <mxGeometry y="52" width="200" height="26" as="geometry" />
        </mxCell>
        <mxCell id="PqfID5NwvcGCKPn-m6vd-92" value="Tag APIs" style="swimlane;fontStyle=1;align=center;verticalAlign=top;childLayout=stackLayout;horizontal=1;startSize=26;horizontalStack=0;resizeParent=1;resizeParentMax=0;resizeLast=0;collapsible=1;marginBottom=0;fillColor=#ffe6cc;strokeColor=#d79b00;" parent="PqfID5NwvcGCKPn-m6vd-71" vertex="1">
          <mxGeometry x="39" y="184" width="240" height="156" as="geometry" />
        </mxCell>
        <mxCell id="PqfID5NwvcGCKPn-m6vd-93" value="updateTag" style="text;strokeColor=none;fillColor=none;align=left;verticalAlign=top;spacingLeft=4;spacingRight=4;overflow=hidden;points=[[0,0.5],[1,0.5]];portConstraint=eastwest;rotatable=0;" parent="PqfID5NwvcGCKPn-m6vd-92" vertex="1">
          <mxGeometry y="26" width="240" height="26" as="geometry" />
        </mxCell>
        <mxCell id="PqfID5NwvcGCKPn-m6vd-94" value="deleteTag" style="text;strokeColor=none;fillColor=none;align=left;verticalAlign=top;spacingLeft=4;spacingRight=4;overflow=hidden;points=[[0,0.5],[1,0.5]];portConstraint=eastwest;rotatable=0;" parent="PqfID5NwvcGCKPn-m6vd-92" vertex="1">
          <mxGeometry y="52" width="240" height="26" as="geometry" />
        </mxCell>
        <mxCell id="PqfID5NwvcGCKPn-m6vd-95" value="fixTagFormat" style="text;strokeColor=none;fillColor=none;align=left;verticalAlign=top;spacingLeft=4;spacingRight=4;overflow=hidden;points=[[0,0.5],[1,0.5]];portConstraint=eastwest;rotatable=0;" parent="PqfID5NwvcGCKPn-m6vd-92" vertex="1">
          <mxGeometry y="78" width="240" height="26" as="geometry" />
        </mxCell>
        <mxCell id="PqfID5NwvcGCKPn-m6vd-96" value="deleteEmptyTags" style="text;strokeColor=none;fillColor=none;align=left;verticalAlign=top;spacingLeft=4;spacingRight=4;overflow=hidden;points=[[0,0.5],[1,0.5]];portConstraint=eastwest;rotatable=0;" parent="PqfID5NwvcGCKPn-m6vd-92" vertex="1">
          <mxGeometry y="104" width="240" height="26" as="geometry" />
        </mxCell>
        <mxCell id="PqfID5NwvcGCKPn-m6vd-97" value="getTagByTagPath" style="text;strokeColor=none;fillColor=none;align=left;verticalAlign=top;spacingLeft=4;spacingRight=4;overflow=hidden;points=[[0,0.5],[1,0.5]];portConstraint=eastwest;rotatable=0;" parent="PqfID5NwvcGCKPn-m6vd-92" vertex="1">
          <mxGeometry y="130" width="240" height="26" as="geometry" />
        </mxCell>
        <mxCell id="PqfID5NwvcGCKPn-m6vd-81" value="Memo APIs" style="swimlane;fontStyle=1;align=center;verticalAlign=top;childLayout=stackLayout;horizontal=1;startSize=26;horizontalStack=0;resizeParent=1;resizeParentMax=0;resizeLast=0;collapsible=1;marginBottom=0;fillColor=#d5e8d4;strokeColor=#82b366;" parent="PqfID5NwvcGCKPn-m6vd-71" vertex="1">
          <mxGeometry x="39" y="378" width="240" height="286" as="geometry" />
        </mxCell>
        <mxCell id="PqfID5NwvcGCKPn-m6vd-82" value="getMemos()" style="text;strokeColor=none;fillColor=none;align=left;verticalAlign=top;spacingLeft=4;spacingRight=4;overflow=hidden;points=[[0,0.5],[1,0.5]];portConstraint=eastwest;rotatable=0;" parent="PqfID5NwvcGCKPn-m6vd-81" vertex="1">
          <mxGeometry y="26" width="240" height="26" as="geometry" />
        </mxCell>
        <mxCell id="PqfID5NwvcGCKPn-m6vd-83" value="getMemo(id)" style="text;strokeColor=none;fillColor=none;align=left;verticalAlign=top;spacingLeft=4;spacingRight=4;overflow=hidden;points=[[0,0.5],[1,0.5]];portConstraint=eastwest;rotatable=0;" parent="PqfID5NwvcGCKPn-m6vd-81" vertex="1">
          <mxGeometry y="52" width="240" height="26" as="geometry" />
        </mxCell>
        <mxCell id="PqfID5NwvcGCKPn-m6vd-84" value="createMemo" style="text;strokeColor=none;fillColor=none;align=left;verticalAlign=top;spacingLeft=4;spacingRight=4;overflow=hidden;points=[[0,0.5],[1,0.5]];portConstraint=eastwest;rotatable=0;" parent="PqfID5NwvcGCKPn-m6vd-81" vertex="1">
          <mxGeometry y="78" width="240" height="26" as="geometry" />
        </mxCell>
        <mxCell id="PqfID5NwvcGCKPn-m6vd-85" value="updateMemo" style="text;strokeColor=none;fillColor=none;align=left;verticalAlign=top;spacingLeft=4;spacingRight=4;overflow=hidden;points=[[0,0.5],[1,0.5]];portConstraint=eastwest;rotatable=0;" parent="PqfID5NwvcGCKPn-m6vd-81" vertex="1">
          <mxGeometry y="104" width="240" height="26" as="geometry" />
        </mxCell>
        <mxCell id="PqfID5NwvcGCKPn-m6vd-86" value="deleteMemo" style="text;strokeColor=none;fillColor=none;align=left;verticalAlign=top;spacingLeft=4;spacingRight=4;overflow=hidden;points=[[0,0.5],[1,0.5]];portConstraint=eastwest;rotatable=0;" parent="PqfID5NwvcGCKPn-m6vd-81" vertex="1">
          <mxGeometry y="130" width="240" height="26" as="geometry" />
        </mxCell>
        <mxCell id="PqfID5NwvcGCKPn-m6vd-87" value="searchMemos" style="text;strokeColor=none;fillColor=none;align=left;verticalAlign=top;spacingLeft=4;spacingRight=4;overflow=hidden;points=[[0,0.5],[1,0.5]];portConstraint=eastwest;rotatable=0;" parent="PqfID5NwvcGCKPn-m6vd-81" vertex="1">
          <mxGeometry y="156" width="240" height="26" as="geometry" />
        </mxCell>
        <mxCell id="PqfID5NwvcGCKPn-m6vd-88" value="getMemosByType" style="text;strokeColor=none;fillColor=none;align=left;verticalAlign=top;spacingLeft=4;spacingRight=4;overflow=hidden;points=[[0,0.5],[1,0.5]];portConstraint=eastwest;rotatable=0;" parent="PqfID5NwvcGCKPn-m6vd-81" vertex="1">
          <mxGeometry y="182" width="240" height="26" as="geometry" />
        </mxCell>
        <mxCell id="PqfID5NwvcGCKPn-m6vd-89" value="getMemosByTagIds" style="text;strokeColor=none;fillColor=none;align=left;verticalAlign=top;spacingLeft=4;spacingRight=4;overflow=hidden;points=[[0,0.5],[1,0.5]];portConstraint=eastwest;rotatable=0;" parent="PqfID5NwvcGCKPn-m6vd-81" vertex="1">
          <mxGeometry y="208" width="240" height="26" as="geometry" />
        </mxCell>
        <mxCell id="PqfID5NwvcGCKPn-m6vd-90" value="getTags" style="text;strokeColor=none;fillColor=none;align=left;verticalAlign=top;spacingLeft=4;spacingRight=4;overflow=hidden;points=[[0,0.5],[1,0.5]];portConstraint=eastwest;rotatable=0;" parent="PqfID5NwvcGCKPn-m6vd-81" vertex="1">
          <mxGeometry y="234" width="240" height="26" as="geometry" />
        </mxCell>
        <mxCell id="PqfID5NwvcGCKPn-m6vd-91" value="getTagsTree" style="text;strokeColor=none;fillColor=none;align=left;verticalAlign=top;spacingLeft=4;spacingRight=4;overflow=hidden;points=[[0,0.5],[1,0.5]];portConstraint=eastwest;rotatable=0;" parent="PqfID5NwvcGCKPn-m6vd-81" vertex="1">
          <mxGeometry y="260" width="240" height="26" as="geometry" />
        </mxCell>
        <mxCell id="PqfID5NwvcGCKPn-m6vd-104" style="edgeStyle=orthogonalEdgeStyle;rounded=0;orthogonalLoop=1;jettySize=auto;html=1;entryX=1.006;entryY=0.705;entryDx=0;entryDy=0;entryPerimeter=0;" parent="1" source="PqfID5NwvcGCKPn-m6vd-71" target="PqfID5NwvcGCKPn-m6vd-59" edge="1">
          <mxGeometry relative="1" as="geometry" />
        </mxCell>
        <mxCell id="PqfID5NwvcGCKPn-m6vd-106" style="edgeStyle=orthogonalEdgeStyle;rounded=0;orthogonalLoop=1;jettySize=auto;html=1;entryX=1.001;entryY=0.304;entryDx=0;entryDy=0;entryPerimeter=0;" parent="1" source="PqfID5NwvcGCKPn-m6vd-71" target="PqfID5NwvcGCKPn-m6vd-59" edge="1">
          <mxGeometry relative="1" as="geometry">
            <Array as="points">
              <mxPoint x="1000" y="544" />
            </Array>
          </mxGeometry>
        </mxCell>
        <mxCell id="PqfID5NwvcGCKPn-m6vd-111" style="edgeStyle=orthogonalEdgeStyle;rounded=0;orthogonalLoop=1;jettySize=auto;html=1;entryX=1.001;entryY=0.352;entryDx=0;entryDy=0;entryPerimeter=0;" parent="1" source="PqfID5NwvcGCKPn-m6vd-50" target="PqfID5NwvcGCKPn-m6vd-71" edge="1">
          <mxGeometry relative="1" as="geometry" />
        </mxCell>
        <mxCell id="lF2HbLf4J3MAsWG7yMuH-41" style="rounded=0;orthogonalLoop=1;jettySize=auto;html=1;" edge="1" parent="1">
          <mxGeometry relative="1" as="geometry">
            <mxPoint x="909" y="314" as="sourcePoint" />
            <mxPoint x="961" y="314" as="targetPoint" />
          </mxGeometry>
        </mxCell>
        <mxCell id="lF2HbLf4J3MAsWG7yMuH-42" style="rounded=0;orthogonalLoop=1;jettySize=auto;html=1;entryX=0;entryY=0.5;entryDx=0;entryDy=0;exitX=0.405;exitY=-0.002;exitDx=0;exitDy=0;exitPerimeter=0;" edge="1" parent="1" source="PqfID5NwvcGCKPn-m6vd-113" target="lF2HbLf4J3MAsWG7yMuH-29">
          <mxGeometry relative="1" as="geometry" />
        </mxCell>
        <mxCell id="PqfID5NwvcGCKPn-m6vd-113" value="" style="swimlane;startSize=0;" parent="1" vertex="1">
          <mxGeometry x="651" y="248" width="258" height="100" as="geometry" />
        </mxCell>
        <mxCell id="PqfID5NwvcGCKPn-m6vd-114" value="&lt;span style=&quot;font-size: 18px;&quot;&gt;事件系统&lt;/span&gt;" style="rounded=1;whiteSpace=wrap;html=1;" parent="PqfID5NwvcGCKPn-m6vd-113" vertex="1">
          <mxGeometry x="10" y="10" width="120" height="30" as="geometry" />
        </mxCell>
        <mxCell id="lF2HbLf4J3MAsWG7yMuH-13" value="JWT身份验证" style="rounded=1;whiteSpace=wrap;html=1;fillColor=#dae8fc;strokeColor=#6c8ebf;" vertex="1" parent="1">
          <mxGeometry x="-790" y="1029" width="120" height="60" as="geometry" />
        </mxCell>
        <mxCell id="lF2HbLf4J3MAsWG7yMuH-14" value="请求频率限制" style="rounded=1;whiteSpace=wrap;html=1;fillColor=#dae8fc;strokeColor=#6c8ebf;" vertex="1" parent="1">
          <mxGeometry x="-790" y="1149" width="120" height="60" as="geometry" />
        </mxCell>
        <mxCell id="lF2HbLf4J3MAsWG7yMuH-15" value="客户端&#xa;浏览器扩展、移动应用" style="rounded=1;whiteSpace=wrap;html=1;fillColor=#dae8fc;strokeColor=#6c8ebf;" vertex="1" parent="1">
          <mxGeometry x="-790" y="1299" width="120" height="60" as="geometry" />
        </mxCell>
        <mxCell id="lF2HbLf4J3MAsWG7yMuH-16" value="NestJS服务器" style="rounded=1;whiteSpace=wrap;html=1;fillColor=#dae8fc;strokeColor=#6c8ebf;" vertex="1" parent="1">
          <mxGeometry x="-520" y="1249" width="120" height="60" as="geometry" />
        </mxCell>
        <mxCell id="lF2HbLf4J3MAsWG7yMuH-17" value="SQLite数据库" style="rounded=1;whiteSpace=wrap;html=1;fillColor=#f8cecc;strokeColor=#b85450;" vertex="1" parent="1">
          <mxGeometry x="-221" y="1249" width="120" height="60" as="geometry" />
        </mxCell>
        <mxCell id="lF2HbLf4J3MAsWG7yMuH-18" value="" style="endArrow=classic;startArrow=classic;html=1;rounded=0;exitX=1;exitY=0.5;exitDx=0;exitDy=0;entryX=0.25;entryY=0;entryDx=0;entryDy=0;dashed=1;" edge="1" parent="1" source="lF2HbLf4J3MAsWG7yMuH-13" target="lF2HbLf4J3MAsWG7yMuH-16">
          <mxGeometry width="50" height="50" relative="1" as="geometry">
            <mxPoint x="-530" y="1359" as="sourcePoint" />
            <mxPoint x="-480" y="1309" as="targetPoint" />
            <Array as="points" />
          </mxGeometry>
        </mxCell>
        <mxCell id="lF2HbLf4J3MAsWG7yMuH-19" value="" style="endArrow=classic;startArrow=classic;html=1;rounded=0;exitX=1;exitY=0.5;exitDx=0;exitDy=0;entryX=0;entryY=0.25;entryDx=0;entryDy=0;dashed=1;" edge="1" parent="1" source="lF2HbLf4J3MAsWG7yMuH-14" target="lF2HbLf4J3MAsWG7yMuH-16">
          <mxGeometry width="50" height="50" relative="1" as="geometry">
            <mxPoint x="-530" y="1359" as="sourcePoint" />
            <mxPoint x="-480" y="1309" as="targetPoint" />
          </mxGeometry>
        </mxCell>
        <mxCell id="lF2HbLf4J3MAsWG7yMuH-20" value="请求" style="endArrow=classic;html=1;rounded=0;exitX=1;exitY=0.25;exitDx=0;exitDy=0;entryX=0;entryY=0.5;entryDx=0;entryDy=0;" edge="1" parent="1" source="lF2HbLf4J3MAsWG7yMuH-15" target="lF2HbLf4J3MAsWG7yMuH-16">
          <mxGeometry width="50" height="50" relative="1" as="geometry">
            <mxPoint x="-530" y="1359" as="sourcePoint" />
            <mxPoint x="-480" y="1309" as="targetPoint" />
          </mxGeometry>
        </mxCell>
        <mxCell id="lF2HbLf4J3MAsWG7yMuH-21" value="响应" style="endArrow=classic;html=1;rounded=0;exitX=0;exitY=0.75;exitDx=0;exitDy=0;entryX=1;entryY=0.75;entryDx=0;entryDy=0;" edge="1" parent="1" source="lF2HbLf4J3MAsWG7yMuH-16" target="lF2HbLf4J3MAsWG7yMuH-15">
          <mxGeometry width="50" height="50" relative="1" as="geometry">
            <mxPoint x="-530" y="1359" as="sourcePoint" />
            <mxPoint x="-480" y="1309" as="targetPoint" />
          </mxGeometry>
        </mxCell>
        <mxCell id="lF2HbLf4J3MAsWG7yMuH-22" value="API服务" style="endArrow=classic;html=1;rounded=0;exitX=0.25;exitY=1;exitDx=0;exitDy=0;entryX=0.75;entryY=1;entryDx=0;entryDy=0;fillColor=#d5e8d4;strokeColor=#82b366;" edge="1" parent="1" source="lF2HbLf4J3MAsWG7yMuH-16" target="lF2HbLf4J3MAsWG7yMuH-15">
          <mxGeometry width="50" height="50" relative="1" as="geometry">
            <mxPoint x="-530" y="1359" as="sourcePoint" />
            <mxPoint x="-480" y="1309" as="targetPoint" />
            <Array as="points">
              <mxPoint x="-490" y="1399" />
              <mxPoint x="-700" y="1399" />
            </Array>
          </mxGeometry>
        </mxCell>
        <mxCell id="lF2HbLf4J3MAsWG7yMuH-23" value="查询、插入、更新、删除" style="endArrow=classic;html=1;rounded=0;exitX=1;exitY=0.25;exitDx=0;exitDy=0;entryX=0;entryY=0.25;entryDx=0;entryDy=0;" edge="1" parent="1" source="lF2HbLf4J3MAsWG7yMuH-16" target="lF2HbLf4J3MAsWG7yMuH-17">
          <mxGeometry width="50" height="50" relative="1" as="geometry">
            <mxPoint x="-530" y="1359" as="sourcePoint" />
            <mxPoint x="-480" y="1309" as="targetPoint" />
          </mxGeometry>
        </mxCell>
        <mxCell id="lF2HbLf4J3MAsWG7yMuH-24" value="数据返回" style="endArrow=classic;html=1;rounded=0;exitX=0;exitY=0.75;exitDx=0;exitDy=0;entryX=1;entryY=0.75;entryDx=0;entryDy=0;" edge="1" parent="1" source="lF2HbLf4J3MAsWG7yMuH-17" target="lF2HbLf4J3MAsWG7yMuH-16">
          <mxGeometry width="50" height="50" relative="1" as="geometry">
            <mxPoint x="-530" y="1359" as="sourcePoint" />
            <mxPoint x="-480" y="1309" as="targetPoint" />
          </mxGeometry>
        </mxCell>
        <mxCell id="lF2HbLf4J3MAsWG7yMuH-40" style="rounded=0;orthogonalLoop=1;jettySize=auto;html=1;" edge="1" parent="1">
          <mxGeometry relative="1" as="geometry">
            <mxPoint x="961" y="287" as="sourcePoint" />
            <mxPoint x="909" y="287" as="targetPoint" />
          </mxGeometry>
        </mxCell>
        <mxCell id="lF2HbLf4J3MAsWG7yMuH-25" value="" style="swimlane;startSize=0;" vertex="1" parent="1">
          <mxGeometry x="961" y="248" width="260" height="100" as="geometry" />
        </mxCell>
        <mxCell id="lF2HbLf4J3MAsWG7yMuH-26" value="&lt;span style=&quot;font-size: 18px;&quot;&gt;组件1&lt;/span&gt;" style="rounded=1;whiteSpace=wrap;html=1;" vertex="1" parent="lF2HbLf4J3MAsWG7yMuH-25">
          <mxGeometry x="10" y="10" width="120" height="30" as="geometry" />
        </mxCell>
        <mxCell id="lF2HbLf4J3MAsWG7yMuH-34" style="rounded=0;orthogonalLoop=1;jettySize=auto;html=1;exitX=0;exitY=0.75;exitDx=0;exitDy=0;entryX=0.681;entryY=0.004;entryDx=0;entryDy=0;entryPerimeter=0;" edge="1" parent="1" source="lF2HbLf4J3MAsWG7yMuH-29" target="PqfID5NwvcGCKPn-m6vd-113">
          <mxGeometry relative="1" as="geometry">
            <mxPoint x="827" y="246" as="targetPoint" />
          </mxGeometry>
        </mxCell>
        <mxCell id="lF2HbLf4J3MAsWG7yMuH-29" value="" style="swimlane;startSize=0;" vertex="1" parent="1">
          <mxGeometry x="961" y="127" width="260" height="100" as="geometry" />
        </mxCell>
        <mxCell id="lF2HbLf4J3MAsWG7yMuH-30" value="&lt;span style=&quot;font-size: 18px;&quot;&gt;组件2&lt;/span&gt;" style="rounded=1;whiteSpace=wrap;html=1;" vertex="1" parent="lF2HbLf4J3MAsWG7yMuH-29">
          <mxGeometry x="10" y="10" width="120" height="30" as="geometry" />
        </mxCell>
        <mxCell id="lF2HbLf4J3MAsWG7yMuH-32" style="rounded=0;orthogonalLoop=1;jettySize=auto;html=1;entryX=0.5;entryY=1;entryDx=0;entryDy=0;" edge="1" parent="1" source="PqfID5NwvcGCKPn-m6vd-62" target="PqfID5NwvcGCKPn-m6vd-113">
          <mxGeometry relative="1" as="geometry" />
        </mxCell>
      </root>
    </mxGraphModel>
  </diagram>
</mxfile>
